<svg width="820" height="180" viewBox="0 0 820 180" fill="none" xmlns="http://www.w3.org/2000/svg" role="img" aria-labelledby="title desc">
  <title id="title">TwinForge</title>
  <desc id="desc">TwinForge project logo</desc>
  <rect width="820" height="180" fill="white"/>
  <g transform="translate(155 34)">
    <path d="M86 74C86 102.7 62.7 126 34 126C24.6 126 15.7 123.5 8 119.1C13.6 100 31.2 86 52 86H86V74Z" fill="#F59E0B"/>
    <path d="M35 19L118 42L102 116L21 92L35 19Z" stroke="#F97316" stroke-width="8" stroke-linejoin="round"/>
    <path d="M56 36L88 93M103 47L40 84M43 31L98 111" stroke="#0284C7" stroke-width="6" stroke-linecap="round"/>
    <circle cx="35" cy="19" r="10" fill="#F97316"/>
    <circle cx="118" cy="42" r="10" fill="#F97316"/>
    <circle cx="102" cy="116" r="10" fill="#F97316"/>
    <circle cx="21" cy="92" r="10" fill="#F97316"/>
    <circle cx="69" cy="82" r="10" fill="#F97316"/>
  </g>
  <text x="330" y="92" fill="#111827" font-family="Inter, Segoe UI, Arial, sans-serif" font-size="56" font-weight="700">TwinForge</text>
  <text x="333" y="130" fill="#4B5563" font-family="Inter, Segoe UI, Arial, sans-serif" font-size="20">LLM training and serving performance lab</text>
</svg>
